<svg width="60" height="60" viewBox="0 0 60 60" fill="none" xmlns="http://www.w3.org/2000/svg">
<path d="M30 35L52.5 22.5L30 10L7.5 22.5L30 35Z" stroke="black" stroke-width="2"/>
<path d="M30 35L45.4 26.445C47.4263 31.5902 48.0014 37.1929 47.0625 42.6425C40.7214 43.258 34.743 45.8841 30 50.1375C25.2576 45.8846 19.2802 43.2585 12.94 42.6425C12.0005 37.193 12.5756 31.5901 14.6025 26.445L30 35Z" stroke="black" stroke-width="2"/>
<path d="M20 50V31.25L30 25.695M30 35L52.5 22.5L30 10L7.5 22.5L30 35ZM30 35L45.4 26.445C47.4263 31.5902 48.0014 37.1929 47.0625 42.6425C40.7214 43.2579 34.743 45.8841 30 50.1375C25.2576 45.8845 19.2802 43.2585 12.94 42.6425C12.0005 37.193 12.5756 31.5901 14.6025 26.445L30 35Z" stroke="black" stroke-width="4" stroke-linecap="round" stroke-linejoin="round"/>
</svg>
