<svg width="60" height="60" viewBox="0 0 60 60" fill="none" xmlns="http://www.w3.org/2000/svg">
<path d="M30 20C25.8575 20 22.5 22.2375 22.5 25C22.5 27.7625 25.8575 30 30 30C34.1425 30 37.5 32.2375 37.5 35C37.5 37.7625 34.1425 40 30 40M30 20C32.775 20 35.2 21.005 36.4975 22.5M30 20V17.5M30 20V40M30 40V42.5M30 40C27.225 40 24.8 38.995 23.5025 37.5M52.5 30C52.5 32.9547 51.918 35.8806 50.7873 38.6104C49.6566 41.3402 47.9992 43.8206 45.9099 45.9099C43.8206 47.9992 41.3402 49.6566 38.6104 50.7873C35.8806 51.918 32.9547 52.5 30 52.5C27.0453 52.5 24.1194 51.918 21.3896 50.7873C18.6598 49.6566 16.1794 47.9992 14.0901 45.9099C12.0008 43.8206 10.3434 41.3402 9.21271 38.6104C8.08198 35.8806 7.5 32.9547 7.5 30C7.5 24.0326 9.87053 18.3097 14.0901 14.0901C18.3097 9.87053 24.0326 7.5 30 7.5C35.9674 7.5 41.6903 9.87053 45.9099 14.0901C50.1295 18.3097 52.5 24.0326 52.5 30Z" stroke="black" stroke-width="4" stroke-linecap="round" stroke-linejoin="round"/>
</svg>
