<svg width="60" height="60" viewBox="0 0 60 60" fill="none" xmlns="http://www.w3.org/2000/svg">
<path d="M22.5 30H37.5M22.5 40H37.5M42.5 52.5H17.5C16.1739 52.5 14.9021 51.9732 13.9645 51.0355C13.0268 50.0979 12.5 48.8261 12.5 47.5V12.5C12.5 11.1739 13.0268 9.90215 13.9645 8.96447C14.9021 8.02678 16.1739 7.5 17.5 7.5H31.465C32.128 7.50014 32.7638 7.76363 33.2325 8.2325L46.7675 21.7675C47.2364 22.2362 47.4999 22.872 47.5 23.535V47.5C47.5 48.8261 46.9732 50.0979 46.0355 51.0355C45.0979 51.9732 43.8261 52.5 42.5 52.5Z" stroke="black" stroke-width="4" stroke-linecap="round" stroke-linejoin="round"/>
</svg>
